<svg width="84" height="80" viewBox="0 0 84 80" fill="none" xmlns="http://www.w3.org/2000/svg">
<g clip-path="url(#clip0_497_68)">
<path d="M31.7355 30.0043C26.0822 28.6338 21.0625 25.5814 17.2269 21.3906C16.7433 20.8639 15.9206 20.8639 15.4369 21.3906C12.2128 24.9075 8.15484 27.6258 3.58545 29.2171L8.1326 31.9751C11.0288 30.8085 13.6081 29.0019 15.6982 26.7197C16.0429 26.3459 16.6265 26.3516 16.9712 26.7253C19.7062 29.7098 23.2861 31.8845 27.3162 32.8642C27.8054 32.9832 28.0889 33.4985 27.9388 33.9855C27.3552 35.9337 27.0439 38.0007 27.0439 40.1414C27.0439 42.1066 27.3107 44.0037 27.7999 45.8046L23.3528 43.1089C23.1304 42.1405 23.0137 41.1325 23.0137 40.0961C23.0137 38.7596 23.2082 37.4741 23.5696 36.2565C23.6585 35.9507 23.4862 35.6335 23.1804 35.5599C20.6623 34.9483 18.4332 33.5891 16.7266 31.7316C16.5098 31.4937 16.1485 31.4937 15.9317 31.7316C14.6309 33.1531 13.0188 34.28 11.2178 35.0049L13.2078 36.2112C14.2863 35.6958 15.2479 34.9823 16.0484 34.1101C16.2041 33.9402 16.4598 33.9402 16.6154 34.1101C17.8328 35.441 19.4227 36.4037 21.2182 36.8398C21.435 36.8908 21.5628 37.123 21.4961 37.3382C21.2404 38.2046 21.0959 39.1221 21.0959 40.0735C21.0959 41.0249 21.2237 41.863 21.4572 42.6899C21.5183 42.9051 21.3905 43.1316 21.1793 43.1826C19.4004 43.6243 17.8217 44.587 16.6154 45.9066C16.4598 46.0765 16.2041 46.0765 16.0484 45.9066C14.8366 44.587 13.2634 43.6243 11.4846 43.1826C11.2678 43.1316 11.1399 42.9051 11.2067 42.6899C11.4401 41.8574 11.568 40.9796 11.568 40.0735C11.568 39.7677 11.5513 39.4675 11.5235 39.173L9.47229 37.9271C9.58902 38.635 9.65017 39.3599 9.65017 40.1018C9.65017 41.376 9.47229 42.6106 9.14431 43.7715C9.05537 44.0773 9.23881 44.3888 9.53899 44.4624C12.0349 45.0797 14.2418 46.4332 15.9372 48.2794C16.154 48.5173 16.5154 48.5173 16.7322 48.2794C18.3109 46.5578 20.3343 45.2723 22.6134 44.604L30.9517 49.6613C31.1908 49.8085 31.4687 49.8311 31.7189 49.7575C32.2358 49.6499 32.6472 49.1459 32.5249 48.5399C32.5193 48.5116 32.5138 48.4833 32.5027 48.455C31.7578 45.8329 31.3631 43.0636 31.3631 40.1981C31.3631 37.1909 31.8022 34.2914 32.6194 31.556C32.8251 30.8765 32.4193 30.1572 31.7411 29.993L31.7355 30.0043Z" fill="#205EA4"/>
<path d="M16.9712 53.2688C16.6265 53.6482 16.0429 53.6482 15.6982 53.2688C12.9799 50.3013 9.43338 48.138 5.43655 47.1469C4.95293 47.028 4.66943 46.5239 4.8084 46.0369C5.33649 44.1681 5.62556 42.1916 5.62556 40.1529C5.62556 38.0065 5.3087 35.9394 4.73058 33.9913C4.70834 33.9177 4.69722 33.8441 4.69722 33.7704L14.3641 39.6318C14.353 39.7055 14.353 39.7848 14.353 39.864C14.353 40.9967 15.2535 41.9198 16.3708 41.9198C17.4882 41.9198 18.3887 41.0023 18.3887 39.864C18.3887 38.7257 17.4882 37.8083 16.3708 37.8083C15.9372 37.8083 15.5315 37.9499 15.2035 38.1877L2.43477 30.4462C2.38474 30.4178 2.33471 30.3895 2.28468 30.3669L1.92335 30.146C1.63429 29.9704 1.2952 29.9195 0.967227 29.9988C0.961668 29.9988 0.956109 29.9988 0.95055 29.9988C0.261251 30.1687 -0.144546 30.8879 0.0611317 31.5731C0.878285 34.3028 1.31744 37.2023 1.31744 40.2038C1.31744 43.2053 0.917197 45.8387 0.177868 48.4551C-0.0166924 49.1347 0.383546 49.8482 1.06173 50.0125C6.67062 51.4 11.6402 54.4354 15.4536 58.5979C15.9372 59.1245 16.76 59.1245 17.2436 58.5979C20.5511 54.9904 24.7369 52.2211 29.4508 50.6467L24.887 47.8774C21.8519 49.0327 19.1558 50.8903 16.9879 53.2575L16.9712 53.2688Z" fill="#DDA923"/>
<path d="M38.8287 44.5813H36.733C35.9214 44.5813 35.2543 45.2553 35.2543 46.0878V46.1161C35.2543 46.4219 35.3433 46.7164 35.5156 46.9655C35.5712 47.0505 35.6323 47.1241 35.7102 47.1977C35.9825 47.4696 36.3439 47.6168 36.7274 47.6168H38.5841C38.7787 47.6168 38.9565 47.7018 39.0788 47.8547C39.2011 48.0076 39.2456 48.2001 39.2067 48.3983C39.1455 48.6928 38.8787 48.908 38.5619 48.908H36.9609C36.683 48.908 36.4328 48.7211 36.355 48.4493C36.3105 48.2907 36.1604 48.1831 35.9881 48.1831H35.2488V48.2624C35.2488 49.2252 36.0159 50.0067 36.9609 50.0067H38.5285C39.4179 50.0067 40.1684 49.3554 40.2796 48.4946C40.3407 48.0132 40.2073 47.5375 39.9127 47.1638C39.8904 47.1354 39.8682 47.1071 39.846 47.0845C39.5235 46.722 39.0622 46.5125 38.5785 46.5125H36.7219C36.5051 46.5125 36.3272 46.3313 36.3272 46.1104V46.0821C36.3272 45.8612 36.5051 45.68 36.7219 45.68H38.8231C39.0399 45.68 39.2178 45.8612 39.2178 46.0821V46.1897H40.2962V46.0821C40.2962 45.2553 39.6347 44.5757 38.8176 44.5757L38.8287 44.5813Z" fill="#205EA4"/>
<path d="M47.2948 44.5815H46.5722C46.4739 44.5815 46.3943 44.6627 46.3943 44.7628V49.8257C46.3943 49.9257 46.4739 50.0069 46.5722 50.0069H47.2948C47.3931 50.0069 47.4727 49.9257 47.4727 49.8257V44.7628C47.4727 44.6627 47.3931 44.5815 47.2948 44.5815Z" fill="#205EA4"/>
<path d="M50.7747 44.5813H48.3621C48.2232 44.5813 48.112 44.6946 48.112 44.8362V49.7348C48.112 49.8878 48.2343 50.0067 48.3788 50.0067H50.7747C51.4862 50.0067 52.1533 49.7235 52.6536 49.2082C52.7036 49.1572 52.7536 49.1062 52.8037 49.0383C53.2095 48.5569 53.4318 47.934 53.4318 47.2883C53.4318 45.7933 52.2367 44.5757 50.7691 44.5757L50.7747 44.5813ZM51.9254 48.3983C51.6252 48.7211 51.2083 48.908 50.7747 48.908H49.1904V45.68H50.7135C51.5863 45.68 52.3089 46.3426 52.359 47.1921C52.3868 47.6451 52.2311 48.0699 51.9309 48.3983H51.9254Z" fill="#205EA4"/>
<path d="M54.071 46.0821V48.5059C54.071 49.3328 54.7326 50.0067 55.5441 50.0067H59.3964V48.908H55.5441C55.3274 48.908 55.1495 48.7268 55.1495 48.5059V47.5885H58.2569C58.3792 47.5885 58.4737 47.4866 58.4737 47.3676V46.6654C58.4737 46.5691 58.3958 46.4898 58.3013 46.4898H55.1495V46.0764C55.1495 45.8556 55.3274 45.6743 55.5441 45.6743H59.3964V44.5757H55.5441C54.7326 44.5757 54.0655 45.2496 54.0655 46.0821H54.071Z" fill="#205EA4"/>
<path d="M71.9206 44.5815H71.1257C71.059 44.5815 70.9923 44.6268 70.9756 44.6948L70.1084 47.6567L68.9077 45.969C68.8799 45.9294 68.8299 45.9011 68.7798 45.9011C68.7298 45.9011 68.6798 45.9237 68.652 45.969L67.4513 47.6567L66.5841 44.6948C66.5618 44.6268 66.5007 44.5815 66.434 44.5815H65.6335C65.5835 44.5815 65.539 44.6042 65.5057 44.6438C65.4779 44.6835 65.4667 44.7344 65.4834 44.7854L66.9899 49.9502L67.0288 50.1145L68.7687 47.6623L69.7082 48.9818L70.5142 50.1201L70.5475 49.9559L70.8922 48.778L72.0596 44.7854C72.0762 44.7344 72.0596 44.6835 72.0373 44.6438C72.0095 44.6042 71.9595 44.5815 71.9095 44.5815H71.9206Z" fill="#205EA4"/>
<path d="M72.71 46.0821V48.5059C72.71 49.3328 73.3715 50.0067 74.1831 50.0067H78.0354V48.908H74.1831C73.9663 48.908 73.7884 48.7268 73.7884 48.5059V47.5885H76.8513C76.9958 47.5885 77.1181 47.4696 77.1181 47.3167V46.7334C77.1181 46.5974 77.0125 46.4898 76.8791 46.4898H73.7939V46.0764C73.7939 45.8556 73.9718 45.6743 74.1886 45.6743H78.0409V44.5757H74.1886C73.377 44.5757 72.71 45.2496 72.71 46.0821Z" fill="#205EA4"/>
<path d="M45.327 45.0174C45.049 44.7343 44.6766 44.5757 44.2875 44.5757H40.9466V45.3289C40.9466 45.5214 41.1022 45.68 41.2912 45.68H44.293C44.3986 45.68 44.4931 45.7196 44.5654 45.7933C44.621 45.8499 44.6877 45.9518 44.6877 46.0878C44.6877 46.2463 44.5988 46.3936 44.4542 46.4559C44.4098 46.4785 44.3542 46.4898 44.293 46.4898H40.9522V50.0123H42.0306V47.5885L44.4264 47.5772C44.4264 47.5772 44.4598 47.5772 44.4765 47.5772C44.621 47.5602 44.76 47.5205 44.8989 47.4526C45.4215 47.2091 45.7606 46.6711 45.7606 46.0821C45.7606 45.68 45.6049 45.3062 45.327 45.0174Z" fill="#205EA4"/>
<path d="M63.9825 47.4643C64.505 47.2208 64.8441 46.6828 64.8441 46.0938C64.8441 45.6974 64.6885 45.318 64.4105 45.0291C64.1326 44.746 63.7602 44.5874 63.371 44.5874H60.0302V45.6861H63.371C63.4766 45.6861 63.5711 45.7257 63.6434 45.7993C63.699 45.856 63.7657 45.9579 63.7657 46.0938C63.7657 46.258 63.6768 46.394 63.5322 46.4619C63.4878 46.4846 63.4322 46.4959 63.371 46.4959H60.0302V50.0184H61.1086V47.5946H61.9535C62.2481 47.5946 62.5205 47.7475 62.6706 48.0023L63.5656 49.7919C63.6379 49.9335 63.7768 50.0184 63.9269 50.0184H64.8886L63.6656 47.5662C63.7713 47.5436 63.8769 47.5096 63.9825 47.4586V47.4643Z" fill="#205EA4"/>
<path d="M83.294 46.8298C83.4219 46.6033 83.4886 46.3428 83.4886 46.0823C83.4886 45.2555 82.8271 44.5815 82.0155 44.5815H78.6746V45.6802H82.0155C82.2323 45.6802 82.4102 45.8614 82.4102 46.0823C82.4102 46.3032 82.2323 46.4844 82.0155 46.4844H78.6746V47.5887H82.2768C82.6325 47.5887 82.9271 47.8832 82.9271 48.2513C82.9271 48.6194 82.6381 48.9139 82.2768 48.9139H78.6746V49.9333V50.0125H82.2768C83.2273 50.0125 84.0056 49.2254 84.0056 48.2513C84.0056 47.685 83.7387 47.164 83.294 46.8298Z" fill="#205EA4"/>
<path d="M38.7453 32.4961C39.618 32.4734 40.4963 32.4961 41.3691 32.4961H42.8867C43.1479 32.4961 43.4759 32.4508 43.726 32.5357C44.0874 32.6546 44.2819 32.9774 44.2819 33.3399C44.2819 33.4135 44.3097 33.4701 44.3486 33.5154C44.3486 33.5211 44.3598 33.5268 44.3653 33.5324C44.3653 33.5324 44.3764 33.5381 44.382 33.5438C44.4265 33.5834 44.4821 33.6117 44.5599 33.6117H46.6556C46.8057 33.6117 46.9335 33.4871 46.9335 33.3399C46.9335 31.8448 45.9718 30.497 44.4987 30.0439C43.6983 29.8004 42.7699 29.891 41.9361 29.891H38.951C37.7391 29.891 36.6385 30.3157 35.9103 31.2955C34.9041 32.6433 35.0876 34.6141 36.3161 35.7751C36.9609 36.3867 37.8114 36.7095 38.7064 36.7208C38.9677 36.7208 39.2345 36.7208 39.4957 36.7208H42.5865C42.9923 36.7208 43.3758 36.7208 43.7205 36.97C44.3931 37.4514 44.4598 38.4311 43.8539 38.9918C43.4926 39.3202 43.0645 39.3485 42.6032 39.3485H39.5958C39.1622 39.3485 38.7509 39.3372 38.3895 39.0427C38.0782 38.7879 37.917 38.4254 37.9059 38.0347C37.9059 37.8874 37.7836 37.7628 37.628 37.7628H35.5323C35.3822 37.7628 35.2543 37.8874 35.2543 38.0347C35.271 39.5581 36.1771 40.9682 37.6057 41.5968C38.5452 42.0102 39.5402 41.9423 40.5464 41.9423C41.408 41.9423 42.2863 41.9819 43.1479 41.9366C44.6988 41.8517 46.0774 40.8776 46.6556 39.4675C47.3115 37.8648 46.7612 35.9903 45.377 34.9369C44.6766 34.4046 43.8205 34.1271 42.9367 34.1157C42.681 34.1157 42.4253 34.1157 42.1696 34.1157H39.0733C38.673 34.1157 38.2617 34.1214 38.0226 33.7306C37.6891 33.17 38.1116 32.5131 38.7453 32.4961Z" fill="#205EA4"/>
<path d="M59.0351 29.8912H54.5547C53.9154 29.8912 53.2706 29.8629 52.6369 29.9479C51.3417 30.1291 50.1243 30.769 49.2182 31.7374C47.3282 33.7592 47.0502 36.9816 48.5956 39.3035C49.3349 40.4135 50.4189 41.2516 51.6697 41.665C52.4368 41.9199 53.2206 41.9482 54.0211 41.9482H59.0351C59.1797 41.9482 59.302 41.8236 59.302 41.6763V39.6263C59.302 39.479 59.1797 39.3544 59.0351 39.3544H53.7653C53.1094 39.3544 52.4812 39.2865 51.892 38.9637C50.7969 38.3634 50.1187 37.1968 50.1021 35.9225C50.1132 34.7956 50.6468 33.7196 51.5585 33.0853C52.1866 32.6492 52.887 32.4907 53.6319 32.4907H59.0296C59.1741 32.4907 59.2964 32.3661 59.2964 32.2188V30.1687C59.2964 30.0215 59.1741 29.8969 59.0296 29.8969L59.0351 29.8912Z" fill="#205EA4"/>
<path d="M71.6371 41.5404C71.0534 40.3398 70.4753 39.1449 69.8916 37.9443C68.8799 35.8659 67.8682 33.7875 66.862 31.7091C66.5896 31.1485 66.3172 30.5878 66.0449 30.0272C65.9559 29.8516 65.6835 29.8516 65.5946 30.0272C64.8831 31.4883 64.1771 32.9494 63.4655 34.4048C62.6539 36.0755 61.8424 37.7461 61.0308 39.4167C60.6861 40.1246 60.3415 40.8325 60.0024 41.5404C59.9134 41.7217 60.019 41.9482 60.2247 41.9482H62.4205C62.5094 41.9482 62.6039 41.8972 62.6428 41.8123C63.5934 39.8641 64.544 37.9103 65.489 35.9622C65.6001 35.7357 65.7058 35.5091 65.8169 35.2883C66.5952 36.891 67.3734 38.4936 68.1517 40.0963C68.4296 40.6683 68.7076 41.2403 68.9911 41.8123C69.03 41.8972 69.13 41.9482 69.2134 41.9482H71.3647C71.398 41.9482 71.437 41.9482 71.4703 41.9369C71.5648 41.9142 71.626 41.8463 71.6482 41.7613C71.6704 41.6933 71.676 41.6197 71.6371 41.5404Z" fill="#205EA4"/>
<path d="M83.9388 29.9932C83.9388 29.9932 83.9277 29.9819 83.9277 29.9763C83.9277 29.9763 83.9166 29.9706 83.911 29.9649C83.8721 29.9253 83.8165 29.897 83.7443 29.897H81.7486C81.6041 29.897 81.4818 30.0216 81.4818 30.1688V36.9476C80.4201 36.1038 79.3528 35.26 78.291 34.4105C77.0959 33.4591 75.8952 32.5077 74.7 31.562C74.0329 31.0353 73.3659 30.5029 72.7044 29.9763C72.5376 29.846 72.3041 30.0272 72.3041 30.2141V41.6877C72.3041 41.835 72.4264 41.9596 72.571 41.9596H74.5666C74.7111 41.9596 74.8334 41.835 74.8334 41.6877V34.9485C75.8952 35.7924 76.9625 36.6362 78.0242 37.4856C79.2194 38.4371 80.4201 39.3885 81.6152 40.3342C82.2823 40.8609 82.9494 41.3932 83.6109 41.9199C83.7776 42.0502 84.0111 41.869 84.0111 41.6821V30.1688C84.0111 30.0952 83.9833 30.0386 83.9444 29.9932H83.9388Z" fill="#205EA4"/>
</g>
<defs>
<clipPath id="clip0_497_68">
<rect width="84" height="38" fill="white" transform="translate(0 21)"/>
</clipPath>
</defs>
</svg>
